<svg xmlns="http://www.w3.org/2000/svg" viewBox="0 0 348 266"><title>The 100</title><rect x="0" y="0" width="14" height="14" rx="3" fill="#000000"/><rect x="16" y="0" width="14" height="14" rx="3" fill="#000000"/><rect x="32" y="0" width="14" height="14" rx="3" fill="#000000"/><rect x="16" y="16" width="14" height="14" rx="3" fill="#000000"/><rect x="16" y="32" width="14" height="14" rx="3" fill="#000000"/><rect x="16" y="48" width="14" height="14" rx="3" fill="#000000"/><rect x="16" y="64" width="14" height="14" rx="3" fill="#000000"/><rect x="64" y="0" width="14" height="14" rx="3" fill="#000000"/><rect x="96" y="0" width="14" height="14" rx="3" fill="#000000"/><rect x="64" y="16" width="14" height="14" rx="3" fill="#000000"/><rect x="96" y="16" width="14" height="14" rx="3" fill="#000000"/><rect x="64" y="32" width="14" height="14" rx="3" fill="#000000"/><rect x="80" y="32" width="14" height="14" rx="3" fill="#000000"/><rect x="96" y="32" width="14" height="14" rx="3" fill="#000000"/><rect x="64" y="48" width="14" height="14" rx="3" fill="#000000"/><rect x="96" y="48" width="14" height="14" rx="3" fill="#000000"/><rect x="64" y="64" width="14" height="14" rx="3" fill="#000000"/><rect x="96" y="64" width="14" height="14" rx="3" fill="#000000"/><rect x="128" y="0" width="14" height="14" rx="3" fill="#000000"/><rect x="144" y="0" width="14" height="14" rx="3" fill="#000000"/><rect x="160" y="0" width="14" height="14" rx="3" fill="#000000"/><rect x="128" y="16" width="14" height="14" rx="3" fill="#000000"/><rect x="128" y="32" width="14" height="14" rx="3" fill="#000000"/><rect x="144" y="32" width="14" height="14" rx="3" fill="#000000"/><rect x="160" y="32" width="14" height="14" rx="3" fill="#000000"/><rect x="128" y="48" width="14" height="14" rx="3" fill="#000000"/><rect x="128" y="64" width="14" height="14" rx="3" fill="#000000"/><rect x="144" y="64" width="14" height="14" rx="3" fill="#000000"/><rect x="160" y="64" width="14" height="14" rx="3" fill="#000000"/><rect x="32" y="110" width="28" height="28" rx="6" fill="#000000"/><rect x="0" y="142" width="28" height="28" rx="6" fill="#000000"/><rect x="32" y="142" width="28" height="28" rx="6" fill="#000000"/><rect x="32" y="174" width="28" height="28" rx="6" fill="#000000"/><rect x="32" y="206" width="28" height="28" rx="6" fill="#000000"/><rect x="0" y="238" width="28" height="28" rx="6" fill="#000000"/><rect x="32" y="238" width="28" height="28" rx="6" fill="#000000"/><rect x="64" y="238" width="28" height="28" rx="6" fill="#000000"/><rect x="128" y="110" width="28" height="28" rx="6" fill="#000000"/><rect x="160" y="110" width="28" height="28" rx="6" fill="#000000"/><rect x="192" y="110" width="28" height="28" rx="6" fill="#000000"/><rect x="128" y="142" width="28" height="28" rx="6" fill="#000000"/><rect x="192" y="142" width="28" height="28" rx="6" fill="#000000"/><rect x="128" y="174" width="28" height="28" rx="6" fill="#000000"/><rect x="192" y="174" width="28" height="28" rx="6" fill="#000000"/><rect x="128" y="206" width="28" height="28" rx="6" fill="#000000"/><rect x="192" y="206" width="28" height="28" rx="6" fill="#000000"/><rect x="128" y="238" width="28" height="28" rx="6" fill="#000000"/><rect x="160" y="238" width="28" height="28" rx="6" fill="#000000"/><rect x="192" y="238" width="28" height="28" rx="6" fill="#000000"/><rect x="256" y="110" width="28" height="28" rx="6" fill="#000000"/><rect x="288" y="110" width="28" height="28" rx="6" fill="#000000"/><rect x="320" y="110" width="28" height="28" rx="6" fill="#000000"/><rect x="256" y="142" width="28" height="28" rx="6" fill="#000000"/><rect x="320" y="142" width="28" height="28" rx="6" fill="#000000"/><rect x="256" y="174" width="28" height="28" rx="6" fill="#000000"/><rect x="320" y="174" width="28" height="28" rx="6" fill="#000000"/><rect x="256" y="206" width="28" height="28" rx="6" fill="#000000"/><rect x="320" y="206" width="28" height="28" rx="6" fill="#000000"/><rect x="256" y="238" width="28" height="28" rx="6" fill="#000000"/><rect x="288" y="238" width="28" height="28" rx="6" fill="#000000"/><rect x="320" y="238" width="28" height="28" rx="6" fill="#000000"/></svg>
